<svg width="40" height="53" viewBox="0 0 40 53" fill="none" xmlns="http://www.w3.org/2000/svg">
<path d="M36.8126 14.8C36.7126 13.8 35.8126 13 34.8126 13H29.8126V10C29.8126 4.5 25.3126 0 19.8126 0C14.3126 0 9.81262 4.5 9.81262 10V13H4.81262C3.81262 13 2.91262 13.8 2.81262 14.8L0.0126182 47.7C-0.0873818 49.1 0.412618 50.4 1.31262 51.4C2.21262 52.4 3.51262 53 4.91262 53H34.6126C36.0126 53 37.3126 52.4 38.2126 51.4C39.1126 50.4 39.6126 49 39.5126 47.7L36.8126 14.8ZM13.8126 10C13.8126 6.7 16.5126 4 19.8126 4C23.1126 4 25.8126 6.7 25.8126 10V13H13.8126V10Z" fill="url(#paint0_linear_2205_11)"/>
<defs>
<linearGradient id="paint0_linear_2205_11" x1="19.7626" y1="0" x2="19.7626" y2="53" gradientUnits="userSpaceOnUse">
<stop stop-color="#713FD5"/>
<stop offset="0.547067" stop-color="#542BA8"/>
<stop offset="1" stop-color="#3A187E"/>
</linearGradient>
</defs>
</svg>
