<svg width="40" height="40" viewBox="0 0 40 40" fill="none" xmlns="http://www.w3.org/2000/svg">
<path d="M38.9714 8.00513C38.8481 8.008 38.7264 8.03363 38.6124 8.08072L19.6169 16.0744C19.4348 16.1504 19.2793 16.2784 19.1697 16.4425C19.0601 16.6065 19.0014 16.7993 19.001 16.9966V38.9935C19.0007 39.1585 19.0412 39.3211 19.1189 39.4667C19.1966 39.6123 19.3091 39.7364 19.4464 39.8281C19.5836 39.9197 19.7413 39.976 19.9056 39.9919C20.0698 40.0079 20.2355 39.983 20.3878 39.9195L39.387 31.9182C39.569 31.8414 39.7242 31.7126 39.8331 31.5478C39.942 31.383 39.9998 31.1897 39.9992 30.9922V9.00292C39.9982 8.86977 39.9707 8.73815 39.9183 8.61576C39.8659 8.49337 39.7896 8.38265 39.6939 8.2901C39.5982 8.19754 39.485 8.125 39.361 8.07672C39.2369 8.02844 39.1045 8.00161 38.9714 8.00513Z" fill="url(#paint0_linear_2208_58)"/>
<path d="M1.01029 7.99756C0.974915 7.99821 0.939598 8.00073 0.904488 8.00512C0.659631 8.03208 0.433303 8.14837 0.268783 8.33176C0.104262 8.51514 0.0130953 8.75274 0.0127156 8.99913V30.996C0.0114637 31.1927 0.0681295 31.3853 0.175645 31.55C0.283161 31.7147 0.436768 31.844 0.617307 31.922L19.6166 39.9232C19.7686 39.9866 19.9339 40.0116 20.0978 39.9958C20.2618 39.98 20.4193 39.9241 20.5564 39.8329C20.6936 39.7417 20.8061 39.618 20.8841 39.4729C20.962 39.3278 21.003 39.1657 21.0034 39.001V17.0042C21.0037 16.8062 20.9453 16.6126 20.8357 16.4478C20.7261 16.283 20.5701 16.1544 20.3874 16.0782L1.3995 8.07693C1.27636 8.02474 1.14402 7.99775 1.01029 7.99756Z" fill="url(#paint1_linear_2208_58)"/>
<path d="M20.0056 2.81547e-05C19.8721 -0.000972849 19.7398 0.0247276 19.6164 0.0756186L0.617127 8.07688C0.434905 8.15306 0.279277 8.28144 0.169817 8.44587C0.0603564 8.6103 0.00195313 8.80343 0.00195312 9.00097C0.00195313 9.19852 0.0603564 9.39165 0.169817 9.55608C0.279277 9.7205 0.434905 9.84888 0.617127 9.92507L19.6164 17.9226C19.7385 17.9735 19.8695 17.9997 20.0018 17.9997C20.1341 17.9997 20.2651 17.9735 20.3873 17.9226L39.3865 9.92129C39.5688 9.84511 39.7244 9.71672 39.8339 9.5523C39.9433 9.38787 40.0017 9.19474 40.0017 8.99719C40.0017 8.79965 39.9433 8.60652 39.8339 8.44209C39.7244 8.27766 39.5688 8.14928 39.3865 8.0731L20.3873 0.0756186C20.2674 0.0261894 20.1353 0.00051737 20.0056 2.81547e-05Z" fill="url(#paint2_linear_2208_58)"/>
<path d="M20.0027 0.00312824C19.8682 0.000447542 19.7345 0.024936 19.6098 0.0751274L0.614304 8.07703C0.613637 8.07769 0.61297 8.07836 0.612304 8.07903C0.4092 8.16443 0.239989 8.31455 0.130971 8.50606C0.0219518 8.69756 -0.0207686 8.91972 0.00944906 9.13801V30.9987C0.00879895 31.1948 0.0657885 31.3867 0.17333 31.5507C0.280872 31.7146 0.434221 31.8433 0.614304 31.9207L19.6098 39.9226C19.6171 39.9254 19.6244 39.928 19.6318 39.9306C19.6351 39.932 19.6384 39.9333 19.6418 39.9346C19.6706 39.9456 19.7 39.9553 19.7297 39.9636C19.7535 39.9705 19.7775 39.9765 19.8017 39.9816C19.8024 39.9816 19.803 39.9816 19.8037 39.9816C19.8276 39.9862 19.8516 39.9898 19.8757 39.9926C19.884 39.9941 19.8923 39.9954 19.9007 39.9966C19.9054 39.9967 19.91 39.9967 19.9147 39.9966C19.9347 39.9979 19.9547 39.9986 19.9747 39.9986C19.9916 39.9997 20.0086 40.0004 20.0257 40.0006C20.0343 40.0001 20.043 39.9994 20.0517 39.9986C20.0757 39.9975 20.0997 39.9955 20.1236 39.9926C20.127 39.992 20.1303 39.9913 20.1336 39.9906C20.1605 39.9874 20.1871 39.983 20.2136 39.9776C20.2169 39.977 20.2203 39.9763 20.2236 39.9756C20.2478 39.9699 20.2719 39.9632 20.2956 39.9556C20.2983 39.955 20.3009 39.9543 20.3036 39.9536C20.3314 39.9445 20.3587 39.9342 20.3856 39.9226L20.3896 39.9206L39.383 31.9207C39.5642 31.8442 39.7188 31.7159 39.8275 31.5519C39.9362 31.3879 39.994 31.1955 39.9939 30.9987V9.07501C40.0097 8.86557 39.9593 8.65645 39.8496 8.47732C39.74 8.29819 39.5767 8.15813 39.383 8.07703L30.2402 4.22608C30.1783 4.19193 30.113 4.16444 30.0453 4.14408L20.3856 0.0751274C20.2639 0.0262431 20.1338 0.00177888 20.0027 0.00312824ZM20.0027 2.0831L27.1729 5.10606L10.7549 12.021L3.58859 9.00102L20.0027 2.0831ZM29.7503 6.19305L36.4147 9.00102L19.9987 15.9149L13.3303 13.106L29.7503 6.19305ZM2.00097 10.506L18.9969 17.6659V37.4937L2.00097 30.3337V10.506ZM37.9944 10.506V30.3337L20.9984 37.4937V17.6669L27.087 15.1029L37.9944 10.506ZM5.11923 23.1998C5.08352 23.1993 5.04781 23.2006 5.01225 23.2038C4.788 23.2236 4.57699 23.3185 4.41338 23.4732C4.24978 23.6279 4.14315 23.8333 4.11076 24.0561C4.07837 24.2789 4.12212 24.5062 4.23493 24.701C4.34773 24.8959 4.52298 25.047 4.73232 25.1298L8.50342 26.7178C8.74815 26.8206 9.02368 26.8219 9.26939 26.7215C9.5151 26.621 9.71086 26.4271 9.8136 26.1823C9.91635 25.9375 9.91767 25.6619 9.81726 25.4162C9.71686 25.1704 9.52297 24.9746 9.27823 24.8718L5.50813 23.2838C5.38543 23.2301 5.25318 23.2015 5.11923 23.1998ZM5.11923 27.1998C5.08352 27.1992 5.04781 27.2005 5.01225 27.2038C4.78718 27.2227 4.57514 27.3173 4.41068 27.4721C4.24622 27.627 4.13903 27.833 4.10656 28.0565C4.0741 28.2801 4.11829 28.5081 4.23191 28.7033C4.34554 28.8986 4.52192 29.0496 4.73232 29.1318L8.50342 30.7177C8.6246 30.7686 8.75461 30.7951 8.88604 30.7958C9.01746 30.7964 9.14773 30.7711 9.26939 30.7214C9.39105 30.6717 9.50173 30.5985 9.59511 30.506C9.68848 30.4135 9.76273 30.3035 9.8136 30.1822C9.86448 30.061 9.89099 29.931 9.89161 29.7995C9.89224 29.6681 9.86698 29.5378 9.81726 29.4161C9.76755 29.2944 9.69436 29.1837 9.60187 29.0903C9.50939 28.9969 9.39941 28.9227 9.27823 28.8718L5.50813 27.2858C5.38558 27.2313 5.25332 27.2021 5.11923 27.1998Z" fill="url(#paint3_linear_2208_58)"/>
<defs>
<linearGradient id="paint0_linear_2208_58" x1="29.5001" y1="8.00513" x2="29.5001" y2="39.9966" gradientUnits="userSpaceOnUse">
<stop stop-color="#6035B8"/>
<stop offset="1" stop-color="#2B1852"/>
</linearGradient>
<linearGradient id="paint1_linear_2208_58" x1="10.508" y1="7.99756" x2="10.508" y2="40.0004" gradientUnits="userSpaceOnUse">
<stop stop-color="#6035B8"/>
<stop offset="1" stop-color="#2B1852"/>
</linearGradient>
<linearGradient id="paint2_linear_2208_58" x1="20.0018" y1="0" x2="20.0018" y2="17.9997" gradientUnits="userSpaceOnUse">
<stop stop-color="#6035B8"/>
<stop offset="1" stop-color="#2B1852"/>
</linearGradient>
<linearGradient id="paint3_linear_2208_58" x1="19.9984" y1="0.00292969" x2="19.9984" y2="40.0006" gradientUnits="userSpaceOnUse">
<stop stop-color="#AE87FF"/>
<stop offset="1" stop-color="#695199"/>
</linearGradient>
</defs>
</svg>
