<svg width="16" height="24" viewBox="0 0 16 24" fill="none" xmlns="http://www.w3.org/2000/svg">
<path d="M11.0084 19H5.00835C4.40835 19 4.00835 18.6 4.00835 18V17.5C4.00835 16.1 3.40835 14.7 2.30835 13.6C0.708351 12 -0.0916494 9.9 0.00835056 7.7C0.208351 3.5 3.70835 0.1 7.90835 0H8.00835C12.4084 0 16.0084 3.6 16.0084 8C16.0084 10.1 15.2084 12.2 13.6084 13.7C12.5084 14.7 12.0084 16.1 12.0084 17.5V18C12.0084 18.6 11.6084 19 11.0084 19ZM6.00835 17H10.0084C10.1084 15.2 10.9084 13.6 12.2084 12.2C13.4084 11.1 14.0084 9.6 14.0084 8C14.0084 4.7 11.3084 2 8.00835 2H7.90835C4.80835 2.1 2.10835 4.6 2.00835 7.8C1.90835 9.4 2.60835 11 3.70835 12.2C5.10835 13.6 5.90835 15.3 6.00835 17Z" fill="url(#paint0_linear_2208_55)"/>
<path d="M8.00781 24C5.80781 24 4.00781 22.2 4.00781 20V18C4.00781 17.4 4.40781 17 5.00781 17H11.0078C11.6078 17 12.0078 17.4 12.0078 18V20C12.0078 22.2 10.2078 24 8.00781 24ZM6.00781 19V20C6.00781 21.1 6.90781 22 8.00781 22C9.10781 22 10.0078 21.1 10.0078 20V19H6.00781ZM5.00781 9C4.40781 9 4.00781 8.6 4.00781 8C4.00781 5.8 5.80781 4 8.00781 4C8.60781 4 9.00781 4.4 9.00781 5C9.00781 5.6 8.60781 6 8.00781 6C6.90781 6 6.00781 6.9 6.00781 8C6.00781 8.6 5.60781 9 5.00781 9Z" fill="url(#paint1_linear_2208_55)"/>
<defs>
<linearGradient id="paint0_linear_2208_55" x1="8.00418" y1="0" x2="8.00418" y2="19" gradientUnits="userSpaceOnUse">
<stop stop-color="#4F3287"/>
<stop offset="1" stop-color="#3A2463"/>
</linearGradient>
<linearGradient id="paint1_linear_2208_55" x1="8.00781" y1="4" x2="8.00781" y2="24" gradientUnits="userSpaceOnUse">
<stop stop-color="#4F3287"/>
<stop offset="1" stop-color="#3A2463"/>
</linearGradient>
</defs>
</svg>
