<svg width="700" height="699" viewBox="0 0 700 699" fill="none" xmlns="http://www.w3.org/2000/svg">
<path d="M63.5113 239.936L115.511 192.436C96.4317 232.351 86.5576 255.029 115.511 312.436L372.011 572.436C403.029 594.802 420.814 600.379 453.011 600.936C454.783 569.221 450.005 552.981 430.511 526.936L166.511 255.436L150.011 223.436C145.768 182.785 150.531 165.374 166.511 139.936L197.511 103.436C243.908 60.2267 269.867 36.1529 312.011 5.93636C360.397 -6.0199 384.694 -0.59671 423.511 28.4364L682.011 291.936C707.649 345.109 700.977 365.324 687.011 400.436L588.511 504.436C610.686 459.034 608.354 435.205 588.511 394.436L326.011 122.436C292.91 100.295 275.115 92.7017 246.511 98.4364C246.693 133.023 253 149.299 271.011 174.936L530.511 431.936C543.478 460.75 558.512 500.936 536.012 545.437C513.512 589.937 442.011 650.936 442.011 650.936C381.33 706.859 345.575 714.522 277.511 669.436L21.0113 409.936L2.01156 375.436C2.01156 375.436 -7.82651 331.872 16.0113 291.936L63.5113 239.936Z" fill="url(#paint0_linear_2203_6)"/>
<defs>
<linearGradient id="paint0_linear_2203_6" x1="349.685" y1="9.40956e-09" x2="350" y2="699" gradientUnits="userSpaceOnUse">
<stop stop-color="#6234B6"/>
<stop offset="0.375058" stop-color="#561FC4"/>
<stop offset="0.764507" stop-color="#3F2677"/>
<stop offset="1" stop-color="#663DD5"/>
</linearGradient>
</defs>
</svg>
