<svg width="16" height="16" viewBox="0 0 16 16" fill="none" xmlns="http://www.w3.org/2000/svg">
<g clip-path="url(#clip0_2208_44)">
<mask id="mask0_2208_44" style="mask-type:luminance" maskUnits="userSpaceOnUse" x="0" y="0" width="16" height="16">
<path d="M16 0H0V15.7368H16V0Z" fill="white"/>
</mask>
<g mask="url(#mask0_2208_44)">
<path d="M1.6677 10.8699H4.10945C4.27795 10.8699 4.51145 10.965 4.63045 11.0821L7.4297 13.8355C7.7872 14.1869 8.0772 14.0686 8.0772 13.5717V2.16399C8.0772 1.66705 7.7872 1.54878 7.4297 1.90039L4.63045 4.6536C4.51145 4.77089 4.27795 4.8658 4.10945 4.8658H1.6677C1.1622 4.8658 0.751953 5.26955 0.751953 5.76648V9.96919C0.751953 10.4664 1.1622 10.8699 1.6677 10.8699Z" fill="url(#paint0_linear_2208_44)"/>
<path fill-rule="evenodd" clip-rule="evenodd" d="M14.0297 7.86831C14.0297 6.5115 13.5932 5.18764 12.7815 4.08877C11.9847 3.0081 10.8707 2.18855 9.59196 1.74128L9.30271 1.64047C9.14396 1.58514 9.06096 1.41327 9.11721 1.25738L9.32171 0.691343C9.37821 0.535204 9.55296 0.45357 9.71146 0.50914L9.99796 0.609462C11.5117 1.13787 12.8272 2.10446 13.7705 3.38332C14.7317 4.68628 15.2507 6.25627 15.2507 7.86831C15.2507 9.4774 14.7317 11.0474 13.7705 12.3503C12.8272 13.6292 11.5117 14.5987 9.99796 15.1272L9.71146 15.2275C9.55296 15.283 9.37821 15.2014 9.32171 15.0453L9.11721 14.4792C9.06096 14.3233 9.14396 14.1515 9.30271 14.0961L9.59196 13.9953C10.8707 13.5481 11.9847 12.7285 12.7815 11.6478C13.5932 10.549 14.0297 9.22512 14.0297 7.86831Z" fill="url(#paint1_linear_2208_44)"/>
<path d="M9.51998 4.79136L9.24623 4.65612C9.09573 4.58162 9.03498 4.40089 9.11073 4.25287L9.38598 3.71462C9.46148 3.56659 9.64498 3.50709 9.79548 3.58184L10.0662 3.71659C10.863 4.11001 11.5405 4.69522 12.041 5.41886C12.5355 6.14227 12.8042 6.99476 12.8072 7.8684C12.8042 8.74204 12.5355 9.59158 12.041 10.315C11.5405 11.0384 10.863 11.6238 10.0662 12.0173L9.79548 12.1518C9.64498 12.2265 9.46148 12.1672 9.38573 12.0192L9.11098 11.4837C9.03523 11.3357 9.09573 11.1552 9.24623 11.0807L9.51998 10.9454C10.1275 10.6452 10.6462 10.195 11.0307 9.64248C11.388 9.11726 11.5832 8.5018 11.5862 7.8684C11.5832 7.23499 11.388 6.61658 11.0307 6.09432C10.6462 5.53886 10.1275 5.09159 9.51998 4.79136Z" fill="url(#paint2_linear_2208_44)"/>
</g>
</g>
<defs>
<linearGradient id="paint0_linear_2208_44" x1="4.41458" y1="1.698" x2="4.41458" y2="14.0377" gradientUnits="userSpaceOnUse">
<stop stop-color="#6E3ECD"/>
<stop offset="1" stop-color="#371F67"/>
</linearGradient>
<linearGradient id="paint1_linear_2208_44" x1="12.1752" y1="0.491699" x2="12.1752" y2="15.2449" gradientUnits="userSpaceOnUse">
<stop stop-color="#6E3ECD"/>
<stop offset="1" stop-color="#371F67"/>
</linearGradient>
<linearGradient id="paint2_linear_2208_44" x1="10.9427" y1="3.54956" x2="10.9427" y2="12.1841" gradientUnits="userSpaceOnUse">
<stop stop-color="#6E3ECD"/>
<stop offset="1" stop-color="#371F67"/>
</linearGradient>
<clipPath id="clip0_2208_44">
<rect width="16" height="15.7368" fill="white"/>
</clipPath>
</defs>
</svg>
